<?xml version="1.0" encoding="UTF-8" standalone="no"?>
<!DOCTYPE svg PUBLIC "-//W3C//DTD SVG 1.1//EN" "http://www.w3.org/Graphics/SVG/1.1/DTD/svg11.dtd">
<svg width="100%" height="100%" viewBox="0 0 974 1369" version="1.1" xmlns="http://www.w3.org/2000/svg" xmlns:xlink="http://www.w3.org/1999/xlink" xml:space="preserve" xmlns:serif="http://www.serif.com/" style="fill-rule:evenodd;clip-rule:evenodd;stroke-linejoin:round;stroke-miterlimit:2;">
    <g id="Wolf-design" serif:id="Wolf design">
    </g>
    <g id="Dog-design" serif:id="Dog design">
    </g>
    <g id="Artboard4" transform="matrix(1,0,0,1,-1627.27,1784.64)">
        <rect x="1627.27" y="-1784.64" width="973.673" height="1368.83" style="fill:none;"/>
        <clipPath id="_clip1">
            <rect x="1627.27" y="-1784.64" width="973.673" height="1368.83"/>
        </clipPath>
        <g clip-path="url(#_clip1)">
            <g transform="matrix(1,0,0,1,0.271472,0.355443)">
                <g id="Dog-design1" serif:id="Dog design">
                    <path d="M1791.25,-522.485C1787.11,-500.533 1773.04,-486.796 1749.05,-481.275C1764.43,-464.515 1777.21,-447.656 1787.4,-430.699L1753.39,-418.375C1743.59,-438.29 1730.52,-457.778 1714.15,-476.839L1709.12,-480.979L1705.77,-470.726C1703.47,-463.365 1699.36,-447.985 1693.44,-424.587L1692.36,-424.389C1681.85,-422.352 1669.75,-419.493 1656.08,-415.812C1660.68,-433.558 1666.17,-451.863 1672.55,-470.726C1676.49,-482.623 1682.7,-497.838 1691.18,-516.373C1692.89,-520.053 1695.35,-525.049 1698.57,-531.358C1695.81,-530.504 1693.41,-529.814 1691.38,-529.288L1684.18,-563.005C1701.07,-565.569 1715.66,-566.85 1727.95,-566.85C1730.78,-566.85 1733.97,-566.686 1737.52,-566.357C1747.24,-565.634 1752.83,-565.141 1754.28,-564.879C1759.4,-564.09 1765.12,-562.315 1771.43,-559.555C1785.23,-553.837 1792.13,-544.011 1792.13,-530.077C1792.13,-528.105 1791.84,-525.574 1791.25,-522.485ZM2139.26,-480.979L2135.91,-470.726C2133.61,-463.365 2129.5,-447.985 2123.59,-424.587L2122.5,-424.389C2111.99,-422.352 2099.89,-419.493 2086.22,-415.812C2090.82,-433.558 2096.31,-451.863 2102.69,-470.726C2106.63,-482.623 2112.84,-497.838 2121.32,-516.373C2123.03,-520.053 2125.49,-525.049 2128.72,-531.358C2125.95,-530.504 2123.56,-529.814 2121.52,-529.288L2114.32,-563.005C2131.21,-565.569 2145.8,-566.85 2158.1,-566.85C2160.92,-566.85 2164.11,-566.686 2167.66,-566.357C2177.39,-565.634 2182.97,-565.141 2184.42,-564.879C2189.55,-564.09 2195.26,-562.315 2201.57,-559.555C2215.38,-553.837 2222.28,-544.011 2222.28,-530.077C2222.28,-528.039 2221.98,-525.509 2221.39,-522.485C2218.17,-505.791 2205.29,-493.829 2182.74,-486.599C2170.71,-482.853 2156.22,-480.979 2139.26,-480.979ZM2493.99,-560.68C2500.6,-563.641 2509.21,-566.454 2519.82,-569.118L2530.27,-544.471C2525.93,-544.339 2522.22,-543.945 2519.13,-543.288C2511.37,-541.447 2505.85,-538.292 2502.57,-533.823C2501.45,-532.246 2500.89,-530.603 2500.89,-528.894C2500.89,-526.002 2502.4,-522.387 2505.42,-518.049C2509.43,-512.265 2511.73,-508.716 2512.33,-507.401C2516.01,-498.791 2517.85,-492.087 2517.85,-487.289L2517.85,-485.317C2516.79,-473.421 2509.96,-463.299 2497.34,-454.952C2490.5,-450.351 2479.46,-446.145 2464.21,-442.333L2458.69,-471.811C2464.48,-472.534 2469.67,-473.684 2474.27,-475.261C2485.18,-479.008 2490.64,-484.003 2490.64,-490.247L2490.64,-491.233C2490.64,-494.388 2489.62,-497.937 2487.58,-501.88C2486.46,-503.523 2484.52,-506.547 2481.76,-510.95C2476.83,-518.772 2474.37,-525.542 2474.37,-531.26C2474.37,-532.031 2474.39,-532.789 2474.42,-533.534C2469.56,-528.351 2464.12,-523.287 2458.1,-518.345C2448.83,-510.589 2438.97,-504.838 2428.53,-501.092C2435.29,-497.674 2441.28,-492.186 2446.47,-484.627C2451.92,-476.674 2454.65,-469.083 2454.65,-461.853C2454.65,-459.881 2454.32,-457.811 2453.66,-455.642L2423.79,-448.346C2424.51,-451.764 2424.88,-455.248 2424.88,-458.797C2424.88,-465.37 2423.66,-471.581 2421.23,-477.43C2418.27,-484.66 2414.13,-489.294 2408.81,-491.331L2406.74,-484.627C2405.16,-479.172 2402.33,-468.59 2398.26,-452.882L2368.39,-445.487C2371.8,-458.107 2375.71,-471.153 2380.12,-484.627C2383.53,-494.815 2388.5,-507.007 2395,-521.204C2400,-531.983 2407.59,-546.508 2417.78,-564.78L2420.84,-565.076C2426.82,-565.799 2433.68,-566.39 2441.44,-566.85C2435.92,-556.794 2428.53,-541.579 2419.26,-521.204C2419.06,-520.678 2418.17,-518.509 2416.6,-514.697C2431.32,-520.875 2445.38,-531.194 2458.79,-545.654C2464.77,-552.029 2469.57,-558.405 2473.18,-564.78L2476.44,-565.076C2482.35,-565.799 2489.19,-566.39 2496.95,-566.85C2496.04,-564.778 2495.05,-562.721 2493.99,-560.68ZM2341.47,-484.627L2317.51,-483.444C2312.58,-475.623 2308.08,-465.435 2304.01,-452.882L2274.13,-445.487C2274.99,-448.774 2278.87,-457.417 2285.77,-471.416L2292.97,-486.007C2299.74,-499.744 2310.38,-516.701 2324.91,-536.879C2332.86,-547.987 2340.72,-557.846 2348.47,-566.456C2353.07,-566.587 2359.87,-566.883 2368.88,-567.343L2369.57,-557.287C2370.03,-549.663 2370.26,-542.335 2370.26,-535.302C2370.26,-521.434 2369.24,-508.551 2367.2,-496.655C2366.48,-494.618 2364.9,-486.04 2362.47,-470.923C2361.48,-464.679 2360.47,-459.586 2359.41,-455.642L2329.54,-448.346C2331.64,-455.116 2335.62,-467.21 2341.47,-484.627ZM1897.49,-538.942C1897.13,-537.794 1896.77,-536.613 1896.39,-535.401C1891.43,-519.363 1887.6,-507.533 1884.9,-499.908C1877.48,-478.876 1868.97,-464.285 1859.37,-456.135C1851.29,-449.365 1840.77,-445.98 1827.82,-445.98C1821.32,-445.98 1814.84,-448.281 1808.4,-452.882C1799.2,-459.586 1794.6,-469.445 1794.6,-482.458C1794.6,-487.848 1795.39,-493.665 1796.96,-499.908C1801.96,-519.495 1809.85,-540.79 1820.62,-563.794L1846.45,-566.85C1840.74,-553.048 1837.02,-544.043 1835.32,-539.837C1828.94,-523.603 1824.47,-510.293 1821.91,-499.908C1821.05,-496.031 1820.62,-492.219 1820.62,-488.472C1820.62,-476.904 1824.77,-471.121 1833.05,-471.121C1842.51,-471.121 1850.83,-480.717 1857.99,-499.908L1882.84,-566.85L1906.99,-566.85C1906.51,-565.732 1905.96,-564.327 1905.34,-562.636C1915.92,-563.45 1928.43,-564.263 1942.88,-565.076C1951.95,-565.602 1966.6,-566.193 1986.85,-566.85L1985.72,-563.303C1994.18,-563.894 2003.65,-564.485 2014.15,-565.076C2023.23,-565.602 2037.88,-566.193 2058.13,-566.85L2050.83,-543.879L2041.76,-543.879C2024.74,-543.879 2011.43,-543.485 2001.83,-542.696L2006.76,-539.837C2005.97,-538.128 2004.03,-533.593 2000.94,-526.232C2000.09,-524.326 1999.14,-522.091 1998.09,-519.528L2032.1,-520.809L2024.9,-500.204L1991.38,-499.021C1990.2,-495.143 1989.25,-492.12 1988.52,-489.951C1983.72,-476.28 1980.37,-462.872 1978.47,-449.727C1969.79,-448.807 1959.93,-447.393 1948.89,-445.487L1948.89,-445.783C1948.89,-446.506 1950.27,-451.797 1953.03,-461.656C1956.32,-473.092 1959.24,-482.425 1961.81,-489.655C1966.14,-501.749 1971.07,-513.941 1976.59,-526.232C1978.7,-530.833 1981.06,-535.631 1983.69,-540.626C1978.11,-540.034 1972.88,-539.443 1968.02,-538.851L1969.5,-543.878C1952.95,-543.864 1939.96,-543.47 1930.55,-542.696L1935.48,-539.837C1934.69,-538.128 1932.75,-533.593 1929.66,-526.232C1928.81,-524.326 1927.86,-522.091 1926.81,-519.528L1960.82,-520.809L1953.62,-500.204L1920.1,-499.021C1918.92,-495.143 1917.97,-492.12 1917.24,-489.951C1912.44,-476.28 1909.09,-462.872 1907.19,-449.727C1898.51,-448.807 1888.65,-447.393 1877.61,-445.487L1877.61,-445.783C1877.61,-446.506 1878.99,-451.797 1881.75,-461.656C1885.04,-473.092 1887.96,-482.425 1890.53,-489.655C1894.86,-501.749 1899.79,-513.941 1905.31,-526.232C1907.42,-530.833 1909.78,-535.631 1912.41,-540.626C1907.11,-540.065 1902.14,-539.504 1897.49,-538.942ZM2312.98,-566.85L2305.68,-543.879L2296.61,-543.879C2279.59,-543.879 2266.28,-543.485 2256.68,-542.696L2261.61,-539.837C2260.83,-538.128 2258.89,-533.593 2255.8,-526.232C2254.94,-524.326 2253.99,-522.091 2252.94,-519.528L2286.95,-520.809L2279.75,-500.204L2246.23,-499.021C2243.8,-491.857 2241.14,-482.754 2238.25,-471.712C2247.38,-472.238 2261.05,-472.928 2279.26,-473.782L2271.77,-451.008L2254.81,-451.008C2243.24,-451.008 2226.22,-449.168 2203.74,-445.487L2203.74,-445.783C2203.74,-446.506 2205.12,-451.797 2207.88,-461.656C2211.17,-473.092 2214.09,-482.425 2216.66,-489.655C2220.99,-501.749 2225.92,-513.941 2231.45,-526.232C2233.55,-530.833 2235.91,-535.631 2238.54,-540.626C2232.96,-540.034 2227.73,-539.443 2222.87,-538.851L2229.87,-562.512C2240.78,-563.367 2253.83,-564.221 2269.01,-565.076C2278.08,-565.602 2292.74,-566.193 2312.98,-566.85ZM2349.55,-541.513C2346.86,-537.701 2341.21,-528.565 2332.6,-514.105L2325.5,-502.077L2341.57,-502.373L2345.22,-499.514C2348.24,-506.152 2349.75,-518.345 2349.75,-536.091C2349.75,-538.785 2349.69,-540.593 2349.55,-541.513ZM1761.18,-525.739C1761.18,-530.997 1757.66,-534.908 1750.63,-537.471C1748.59,-538.26 1745.27,-538.654 1740.67,-538.654L1738.11,-538.654C1734.03,-538.457 1728.51,-537.405 1721.54,-535.499L1728.64,-531.851C1726.28,-527.711 1723.81,-522.551 1721.25,-516.373C1721.05,-515.913 1719.74,-512.364 1717.3,-505.725L1725.78,-506.021C1734.59,-506.218 1742.02,-507.5 1748.06,-509.866C1756.81,-513.284 1761.18,-518.575 1761.18,-525.739ZM2191.32,-525.739C2191.32,-530.997 2187.8,-534.908 2180.77,-537.471C2178.73,-538.26 2175.41,-538.654 2170.81,-538.654L2168.25,-538.654C2164.18,-538.457 2158.65,-537.405 2151.69,-535.499L2158.78,-531.851C2156.42,-527.711 2153.95,-522.551 2151.39,-516.373C2151.19,-515.913 2149.88,-512.364 2147.45,-505.725L2155.93,-506.021C2164.73,-506.218 2172.16,-507.5 2178.21,-509.866C2186.95,-513.284 2191.32,-518.575 2191.32,-525.739ZM2252.68,-1254.03C2252.91,-1255.75 2253.25,-1257.38 2253.87,-1258.82C2255.87,-1263.27 2254.55,-1268.65 2254.55,-1269.42C2254.55,-1270.34 2251.17,-1270.96 2246.87,-1270.96C2242.72,-1270.96 2239.18,-1271.57 2239.18,-1272.19C2239.18,-1275.72 2251.93,-1290.92 2260.69,-1297.99C2269.91,-1305.52 2270.98,-1307.05 2276.97,-1321.34C2285.42,-1342.07 2290.95,-1349.29 2300.93,-1353.13C2308.61,-1356.21 2309.23,-1356.82 2325.82,-1382.62C2335.19,-1397.22 2343.79,-1409.97 2344.71,-1410.89C2346.24,-1412.42 2348.09,-1412.12 2353.16,-1409.2C2363.45,-1403.67 2364.99,-1401.83 2365.45,-1393.99C2365.91,-1388 2366.52,-1386.62 2370.21,-1384.93L2374.35,-1382.93L2374.35,-1364.19C2374.35,-1353.9 2370.57,-1338 2369.34,-1329.55C2367.46,-1316.59 2348.71,-1250.27 2342.54,-1238.25C2335.99,-1225.49 2340.97,-1211.36 2340.96,-1196.33C2340.92,-1147.16 2340.44,-1158.35 2332.92,-1114.76C2325.47,-1071.59 2308.05,-1052.39 2307.2,-1046.94C2303.28,-1023.45 2302.81,-1027.19 2290.04,-1005.57C2274.38,-979.357 2264.45,-962.663 2265.64,-919.43C2266.32,-892.197 2267.33,-878.816 2271.24,-879.667C2279.75,-881.198 2299.06,-875.693 2326.8,-852.545L2348.08,-834.843L2368.33,-798.248C2379.56,-778.164 2389.78,-759.781 2390.97,-757.228C2392.33,-754.505 2399.31,-749.228 2408.5,-743.782C2417.01,-738.846 2429.61,-727.612 2436.58,-723.527C2443.56,-719.442 2449.35,-715.527 2449.35,-714.846C2449.35,-713.825 2469.94,-677.872 2477.12,-661.401C2483.67,-646.382 2530,-620.076 2530,-618.374C2530,-616.842 2329.35,-616.296 2034.55,-616.296L1656.63,-616.296L1685.63,-632.466C1706.9,-645.231 1773.11,-692.719 1777.03,-698.166C1778.05,-699.528 1807,-718.63 1808.19,-719.481C1809.38,-720.502 1821.78,-733.006 1825.18,-733.517C1829.1,-734.197 1853.11,-752.292 1853.62,-752.803C1854.13,-753.313 1859.24,-766.681 1859.24,-766.681L1862.76,-788.743C1873.99,-811.551 1875.58,-838.588 1879.49,-874.842L1881.71,-894.246L1888.51,-897.139C1898.22,-901.394 1912.34,-916.543 1916.43,-927.436C1919.83,-936.117 1923.62,-963.665 1920.05,-971.318C1913.56,-985.269 1916.72,-1002.37 1912,-997.277C1887.17,-970.513 1885.22,-962.552 1863.21,-950.819C1811.79,-923.409 1736.71,-949.372 1736.84,-954.122C1736.94,-957.633 1742.82,-956.372 1764.26,-952.116C1803.07,-944.117 1831.32,-951.946 1858.05,-977.988C1870.98,-990.583 1873.88,-994.839 1894.47,-1030.75C1906.73,-1052.2 1918.81,-1071.6 1921.36,-1073.82C1939.58,-1089.3 1951.83,-1096.62 1968.34,-1102.24C1974.3,-1104.28 2030.33,-1133.8 2054.67,-1137.54C2061.31,-1138.56 2098.13,-1138.87 2129.96,-1160.38C2142.72,-1169 2190.99,-1191.09 2195.07,-1191.09C2196.26,-1191.09 2223.74,-1211.94 2236.16,-1219.6C2241.82,-1223.18 2248.46,-1243.75 2252.68,-1254.03ZM2444.67,-1472.53C2540.75,-1383.59 2600.94,-1256.39 2600.94,-1115.25C2600.94,-967.658 2535.12,-835.317 2431.28,-746.025L2490.89,-841.123C2546.99,-918.045 2580.11,-1012.81 2580.11,-1115.25C2580.11,-1241.66 2529.67,-1356.38 2447.81,-1440.39L2447.71,-1440.39L2272.14,-1658.2L2191.03,-1549.76L2224.8,-1653.22L2152.31,-1587.07L2168.66,-1631.37L2008.18,-1473.26L2061.65,-1604.29L1970.59,-1508.31L2013.39,-1606.52L1863.7,-1441.13L1857.91,-1441.13L1913.64,-1569.02L1818.26,-1463.63L1874.66,-1566.95L1773.99,-1433.68C1695.93,-1350.35 1648.11,-1238.34 1648.11,-1115.25C1648.11,-1017 1678.58,-925.815 1730.56,-850.654L1729.87,-850.699L1785.16,-756.484C1688.13,-845.506 1627.27,-973.327 1627.27,-1115.25C1627.27,-1245.38 1678.44,-1363.65 1761.72,-1451.02L1909.75,-1659.1L1954.92,-1595.61L2043.76,-1720.48L2110.37,-1626.84L2222.64,-1784.64L2444.67,-1472.53ZM1925.86,-772.795C1969.61,-786.582 1986.08,-792.777 1985.39,-805.372C1984.54,-821.542 1987.27,-821.363 1984.69,-826.698C1986.37,-833.658 1981.86,-832.992 1986.13,-846.561C1991.92,-858.816 1985.36,-861.906 1986.04,-879.608C1986.55,-894.246 1984.6,-897.312 1984.68,-898.841C1986.25,-926.459 1966.31,-890.247 1952.01,-881.056L1919.34,-871.174L1907.92,-839.335C1886.65,-794.06 1881.39,-784.599 1891.25,-766.035C1899.34,-750.802 1891.99,-762.243 1925.86,-772.795ZM2013.62,-815.269C2013.62,-803.184 2030.14,-821.501 2045.63,-826.267C2071.67,-834.437 2085.14,-842.64 2132.28,-854.554C2142.84,-857.277 2171.83,-866.822 2171.83,-866.822C2171.83,-866.822 2176.55,-866.693 2172.46,-877.706C2172.38,-877.903 2170.52,-881.279 2170.49,-881.494C2170.16,-883.609 2172.66,-900.606 2171.79,-902.279C2172.13,-935.299 2167.46,-975.339 2164.91,-980.105C2163.72,-981.977 2159.88,-986.436 2150.86,-986.096C2143.2,-985.755 2069.82,-988.475 2067.78,-974.518C2061.31,-933.838 2051.91,-909.731 2033.17,-890.596C2029.24,-886.581 2012.5,-837.056 2012.5,-837.056L2013.62,-815.269ZM2206.94,-871.359C2211.88,-861.487 2249.18,-875.693 2246.97,-878.587C2244.08,-882.501 2242.54,-886.761 2242.54,-897.484C2242.54,-917.569 2238.29,-967.095 2235.57,-973.563C2234.21,-976.626 2233.19,-982.924 2233.19,-987.52C2233.19,-992.115 2232.85,-995.86 2232.33,-995.86C2231.99,-995.86 2221.01,-995.2 2218.12,-995.2C2214.54,-995.2 2209.36,-988.03 2208.68,-986.158C2206.46,-980.541 2195.64,-942.002 2195.64,-907.279C2195.64,-874.599 2203.71,-877.997 2206.94,-871.359Z" style="fill:white;fill-rule:nonzero;"/>
                </g>
            </g>
        </g>
    </g>
    <g id="Dog-design-horizontal" serif:id="Dog design horizontal">
    </g>
</svg>
