<?xml version="1.0" encoding="UTF-8" standalone="no"?>
<!DOCTYPE svg PUBLIC "-//W3C//DTD SVG 1.1//EN" "http://www.w3.org/Graphics/SVG/1.1/DTD/svg11.dtd">
<svg width="100%" height="100%" viewBox="0 0 875 154" version="1.1" xmlns="http://www.w3.org/2000/svg" xmlns:xlink="http://www.w3.org/1999/xlink" xml:space="preserve" xmlns:serif="http://www.serif.com/" style="fill-rule:evenodd;clip-rule:evenodd;stroke-linejoin:round;stroke-miterlimit:2;">
    <g id="Wolf-design" serif:id="Wolf design">
    </g>
    <g id="Artboard2" transform="matrix(1,0,0,1,-368.744,-1357.88)">
        <rect x="368.744" y="1357.88" width="874.188" height="153.306" style="fill:none;"/>
        <clipPath id="_clip1">
            <rect x="368.744" y="1357.88" width="874.188" height="153.306"/>
        </clipPath>
        <g clip-path="url(#_clip1)">
            <g id="Dog-design" serif:id="Dog design" transform="matrix(1,0,0,1,-926.421,-1480.96)">
                <g transform="matrix(1,0,0,1,676.567,-473.335)">
                    <g transform="matrix(201.91,0,0,201.91,617.568,3468.24)">
                        <path d="M0.678,-0.538C0.658,-0.429 0.588,-0.361 0.469,-0.333C0.545,-0.25 0.609,-0.167 0.659,-0.083L0.491,-0.022C0.442,-0.121 0.377,-0.217 0.296,-0.312L0.271,-0.332L0.255,-0.281C0.243,-0.245 0.223,-0.169 0.194,-0.053L0.188,-0.052C0.136,-0.042 0.076,-0.028 0.009,-0.009C0.032,-0.097 0.059,-0.188 0.09,-0.281C0.11,-0.34 0.141,-0.416 0.183,-0.507C0.191,-0.526 0.203,-0.55 0.219,-0.582C0.206,-0.577 0.194,-0.574 0.184,-0.571L0.148,-0.738C0.232,-0.751 0.304,-0.757 0.365,-0.757C0.379,-0.757 0.395,-0.757 0.412,-0.755C0.46,-0.751 0.488,-0.749 0.495,-0.748C0.521,-0.744 0.549,-0.735 0.58,-0.721C0.648,-0.693 0.683,-0.644 0.683,-0.575C0.683,-0.565 0.681,-0.553 0.678,-0.538ZM0.529,-0.554C0.529,-0.58 0.512,-0.599 0.477,-0.612C0.467,-0.616 0.451,-0.618 0.428,-0.618L0.415,-0.618C0.395,-0.617 0.368,-0.611 0.333,-0.602L0.368,-0.584C0.356,-0.563 0.344,-0.538 0.332,-0.507C0.331,-0.505 0.324,-0.487 0.312,-0.455L0.354,-0.456C0.398,-0.457 0.434,-0.463 0.464,-0.475C0.508,-0.492 0.529,-0.518 0.529,-0.554Z" style="fill-rule:nonzero;"/>
                    </g>
                    <g transform="matrix(201.91,0,0,201.91,740.804,3468.24)">
                        <path d="M0.641,-0.757C0.631,-0.733 0.613,-0.681 0.589,-0.602C0.564,-0.522 0.545,-0.464 0.532,-0.426C0.495,-0.322 0.453,-0.249 0.405,-0.209C0.365,-0.175 0.313,-0.159 0.249,-0.159C0.217,-0.159 0.185,-0.17 0.153,-0.193C0.107,-0.226 0.084,-0.275 0.084,-0.339C0.084,-0.366 0.088,-0.395 0.096,-0.426C0.121,-0.523 0.16,-0.628 0.213,-0.742L0.341,-0.757C0.313,-0.689 0.295,-0.644 0.286,-0.624C0.255,-0.543 0.232,-0.477 0.22,-0.426C0.215,-0.407 0.213,-0.388 0.213,-0.369C0.213,-0.312 0.234,-0.283 0.275,-0.283C0.322,-0.283 0.363,-0.331 0.398,-0.426L0.521,-0.757L0.641,-0.757Z" style="fill-rule:nonzero;"/>
                    </g>
                    <g transform="matrix(201.91,0,0,201.91,840.872,3468.24)">
                        <path d="M0.146,-0.177C0.104,-0.173 0.055,-0.166 0,-0.156L0,-0.158C0,-0.161 0.007,-0.188 0.021,-0.236C0.037,-0.293 0.051,-0.339 0.064,-0.375C0.085,-0.435 0.11,-0.495 0.137,-0.556C0.148,-0.579 0.159,-0.603 0.172,-0.627C0.145,-0.625 0.119,-0.622 0.095,-0.619L0.129,-0.736C0.183,-0.74 0.248,-0.744 0.323,-0.749C0.368,-0.751 0.441,-0.754 0.541,-0.757L0.505,-0.644L0.46,-0.644C0.376,-0.644 0.31,-0.642 0.262,-0.638L0.287,-0.624C0.283,-0.615 0.273,-0.593 0.258,-0.556C0.254,-0.547 0.249,-0.536 0.244,-0.523L0.412,-0.529L0.376,-0.427L0.21,-0.421C0.205,-0.402 0.2,-0.387 0.196,-0.376C0.173,-0.309 0.156,-0.242 0.146,-0.177Z" style="fill-rule:nonzero;"/>
                    </g>
                    <g transform="matrix(201.91,0,0,201.91,912.152,3468.24)">
                        <path d="M0.146,-0.177C0.104,-0.173 0.055,-0.166 0,-0.156L0,-0.158C0,-0.161 0.007,-0.188 0.021,-0.236C0.037,-0.293 0.051,-0.339 0.064,-0.375C0.085,-0.435 0.11,-0.495 0.137,-0.556C0.148,-0.579 0.159,-0.603 0.172,-0.627C0.145,-0.625 0.119,-0.622 0.095,-0.619L0.129,-0.736C0.183,-0.74 0.248,-0.744 0.323,-0.749C0.368,-0.751 0.441,-0.754 0.541,-0.757L0.505,-0.644L0.46,-0.644C0.376,-0.644 0.31,-0.642 0.262,-0.638L0.287,-0.624C0.283,-0.615 0.273,-0.593 0.258,-0.556C0.254,-0.547 0.249,-0.536 0.244,-0.523L0.412,-0.529L0.376,-0.427L0.21,-0.421C0.205,-0.402 0.2,-0.387 0.196,-0.376C0.173,-0.309 0.156,-0.242 0.146,-0.177Z" style="fill-rule:nonzero;"/>
                    </g>
                    <g transform="matrix(201.91,0,0,201.91,1047.71,3468.24)">
                        <path d="M0.529,-0.554C0.529,-0.58 0.512,-0.599 0.477,-0.612C0.467,-0.616 0.451,-0.618 0.428,-0.618L0.415,-0.618C0.395,-0.617 0.368,-0.611 0.333,-0.602L0.368,-0.584C0.356,-0.563 0.344,-0.538 0.332,-0.507C0.331,-0.505 0.324,-0.487 0.312,-0.455L0.354,-0.456C0.398,-0.457 0.434,-0.463 0.464,-0.475C0.508,-0.492 0.529,-0.518 0.529,-0.554ZM0.271,-0.332L0.255,-0.281C0.243,-0.245 0.223,-0.169 0.194,-0.053L0.188,-0.052C0.136,-0.042 0.076,-0.028 0.009,-0.009C0.032,-0.097 0.059,-0.188 0.09,-0.281C0.11,-0.34 0.141,-0.416 0.183,-0.507C0.191,-0.526 0.203,-0.55 0.219,-0.582C0.206,-0.577 0.194,-0.574 0.184,-0.571L0.148,-0.738C0.232,-0.751 0.304,-0.757 0.365,-0.757C0.379,-0.757 0.395,-0.757 0.412,-0.755C0.46,-0.751 0.488,-0.749 0.495,-0.748C0.521,-0.744 0.549,-0.735 0.58,-0.721C0.648,-0.693 0.683,-0.644 0.683,-0.575C0.683,-0.565 0.681,-0.553 0.678,-0.538C0.662,-0.455 0.598,-0.396 0.487,-0.36C0.427,-0.341 0.355,-0.332 0.271,-0.332Z" style="fill-rule:nonzero;"/>
                    </g>
                    <g transform="matrix(201.91,0,0,201.91,1166.02,3468.24)">
                        <path d="M0.546,-0.757L0.51,-0.644L0.465,-0.644C0.381,-0.644 0.315,-0.642 0.267,-0.638L0.292,-0.624C0.288,-0.615 0.278,-0.593 0.263,-0.556C0.258,-0.547 0.254,-0.536 0.249,-0.523L0.417,-0.529L0.381,-0.427L0.215,-0.421C0.203,-0.386 0.19,-0.341 0.176,-0.286C0.221,-0.289 0.289,-0.292 0.379,-0.296L0.342,-0.184L0.258,-0.184C0.201,-0.184 0.116,-0.174 0.005,-0.156L0.005,-0.158C0.005,-0.161 0.012,-0.188 0.025,-0.236C0.042,-0.293 0.056,-0.339 0.069,-0.375C0.09,-0.435 0.115,-0.495 0.142,-0.556C0.153,-0.579 0.164,-0.603 0.177,-0.627C0.15,-0.625 0.124,-0.622 0.1,-0.619L0.134,-0.736C0.188,-0.74 0.253,-0.744 0.328,-0.749C0.373,-0.751 0.446,-0.754 0.546,-0.757Z" style="fill-rule:nonzero;"/>
                    </g>
                    <g transform="matrix(201.91,0,0,201.91,1237.3,3468.24)">
                        <path d="M0.374,-0.632C0.361,-0.613 0.333,-0.568 0.29,-0.496L0.255,-0.437L0.334,-0.438L0.353,-0.424C0.368,-0.457 0.375,-0.517 0.375,-0.605C0.375,-0.618 0.375,-0.627 0.374,-0.632ZM0.334,-0.35L0.215,-0.344C0.191,-0.306 0.169,-0.255 0.148,-0.193L0,-0.156C0.005,-0.173 0.024,-0.215 0.058,-0.285L0.094,-0.357C0.127,-0.425 0.18,-0.509 0.252,-0.609C0.291,-0.664 0.33,-0.713 0.369,-0.755C0.391,-0.756 0.425,-0.757 0.47,-0.76L0.473,-0.71C0.475,-0.672 0.477,-0.636 0.477,-0.601C0.477,-0.532 0.472,-0.469 0.461,-0.41C0.458,-0.4 0.45,-0.357 0.438,-0.282C0.433,-0.251 0.428,-0.226 0.423,-0.207L0.275,-0.17C0.285,-0.204 0.305,-0.264 0.334,-0.35Z" style="fill-rule:nonzero;"/>
                    </g>
                    <g transform="matrix(201.91,0,0,201.91,1331.55,3468.24)">
                        <path d="M0.423,-0.207L0.275,-0.17C0.278,-0.187 0.28,-0.205 0.28,-0.222C0.28,-0.255 0.274,-0.285 0.262,-0.314C0.248,-0.35 0.227,-0.373 0.201,-0.383L0.19,-0.35C0.183,-0.323 0.169,-0.271 0.148,-0.193L0,-0.156C0.017,-0.219 0.037,-0.283 0.059,-0.35C0.076,-0.401 0.1,-0.461 0.132,-0.531C0.157,-0.585 0.195,-0.657 0.245,-0.747L0.26,-0.749C0.29,-0.752 0.324,-0.755 0.362,-0.757C0.335,-0.708 0.298,-0.632 0.252,-0.531C0.251,-0.529 0.247,-0.518 0.239,-0.499C0.312,-0.53 0.382,-0.581 0.448,-0.652C0.478,-0.684 0.502,-0.715 0.52,-0.747L0.536,-0.749C0.565,-0.752 0.599,-0.755 0.637,-0.757C0.6,-0.672 0.536,-0.592 0.445,-0.517C0.399,-0.479 0.35,-0.45 0.298,-0.432C0.332,-0.415 0.361,-0.388 0.387,-0.35C0.414,-0.311 0.428,-0.273 0.428,-0.237C0.428,-0.228 0.426,-0.217 0.423,-0.207Z" style="fill-rule:nonzero;"/>
                    </g>
                    <g transform="matrix(201.91,0,0,201.91,1417.72,3468.24)">
                        <path d="M0.375,-0.646C0.354,-0.646 0.336,-0.644 0.32,-0.641C0.282,-0.632 0.255,-0.616 0.238,-0.594C0.233,-0.586 0.23,-0.578 0.23,-0.569C0.23,-0.555 0.237,-0.537 0.252,-0.516C0.272,-0.487 0.284,-0.469 0.287,-0.463C0.305,-0.42 0.314,-0.387 0.314,-0.363L0.314,-0.354C0.309,-0.295 0.275,-0.244 0.212,-0.203C0.179,-0.18 0.124,-0.16 0.048,-0.141L0.021,-0.287C0.05,-0.29 0.075,-0.296 0.098,-0.304C0.152,-0.322 0.179,-0.347 0.179,-0.378L0.179,-0.383C0.179,-0.398 0.174,-0.416 0.164,-0.436C0.159,-0.444 0.149,-0.459 0.135,-0.48C0.111,-0.519 0.099,-0.553 0.099,-0.581C0.099,-0.642 0.121,-0.685 0.167,-0.712C0.201,-0.732 0.254,-0.751 0.324,-0.769L0.375,-0.646Z" style="fill-rule:nonzero;"/>
                    </g>
                </g>
            </g>
        </g>
    </g>
    <g id="Dog-design-horizontal" serif:id="Dog design horizontal">
    </g>
</svg>
