<?xml version="1.0" encoding="UTF-8" standalone="no"?>
<!DOCTYPE svg PUBLIC "-//W3C//DTD SVG 1.1//EN" "http://www.w3.org/Graphics/SVG/1.1/DTD/svg11.dtd">
<svg width="100%" height="100%" viewBox="0 0 974 1169" version="1.1" xmlns="http://www.w3.org/2000/svg" xmlns:xlink="http://www.w3.org/1999/xlink" xml:space="preserve" xmlns:serif="http://www.serif.com/" style="fill-rule:evenodd;clip-rule:evenodd;stroke-linejoin:round;stroke-miterlimit:2;">
    <g id="Wolf-design" serif:id="Wolf design">
    </g>
    <g id="Dog-design" serif:id="Dog design">
    </g>
    <g id="Artboard5" transform="matrix(1,0,0,1,-1280.6,-0.355443)">
        <rect x="1280.6" y="0.355" width="973.673" height="1168.35" style="fill:none;"/>
        <clipPath id="_clip1">
            <rect x="1280.6" y="0.355" width="973.673" height="1168.35"/>
        </clipPath>
        <g clip-path="url(#_clip1)">
            <g transform="matrix(1,0,0,1,-346.071,1785.36)">
                <path d="M2252.68,-1254.03C2252.91,-1255.75 2253.25,-1257.38 2253.87,-1258.82C2255.87,-1263.27 2254.55,-1268.65 2254.55,-1269.42C2254.55,-1270.34 2251.17,-1270.96 2246.87,-1270.96C2242.72,-1270.96 2239.18,-1271.57 2239.18,-1272.19C2239.18,-1275.72 2251.93,-1290.92 2260.69,-1297.99C2269.91,-1305.52 2270.98,-1307.05 2276.97,-1321.34C2285.42,-1342.07 2290.95,-1349.29 2300.93,-1353.13C2308.61,-1356.21 2309.23,-1356.82 2325.82,-1382.62C2335.19,-1397.22 2343.79,-1409.97 2344.71,-1410.89C2346.24,-1412.42 2348.09,-1412.12 2353.16,-1409.2C2363.45,-1403.67 2364.99,-1401.83 2365.45,-1393.99C2365.91,-1388 2366.52,-1386.62 2370.21,-1384.93L2374.35,-1382.93L2374.35,-1364.19C2374.35,-1353.9 2370.57,-1338 2369.34,-1329.55C2367.46,-1316.59 2348.71,-1250.27 2342.54,-1238.25C2335.99,-1225.49 2340.97,-1211.36 2340.96,-1196.33C2340.92,-1147.16 2340.44,-1158.35 2332.92,-1114.76C2325.47,-1071.59 2308.05,-1052.39 2307.2,-1046.94C2303.28,-1023.45 2302.81,-1027.19 2290.04,-1005.57C2274.38,-979.357 2264.45,-962.663 2265.64,-919.43C2266.32,-892.197 2267.33,-878.816 2271.24,-879.667C2279.75,-881.198 2299.06,-875.693 2326.8,-852.545L2348.08,-834.843L2368.33,-798.248C2379.56,-778.164 2389.78,-759.781 2390.97,-757.228C2392.33,-754.505 2399.31,-749.228 2408.5,-743.782C2417.01,-738.846 2429.61,-727.612 2436.58,-723.527C2443.56,-719.442 2449.35,-715.527 2449.35,-714.846C2449.35,-713.825 2469.94,-677.872 2477.12,-661.401C2483.67,-646.382 2530,-620.076 2530,-618.374C2530,-616.842 2329.35,-616.296 2034.55,-616.296L1656.63,-616.296L1685.63,-632.466C1706.9,-645.231 1773.11,-692.719 1777.03,-698.166C1778.05,-699.528 1807,-718.63 1808.19,-719.481C1809.38,-720.502 1821.78,-733.006 1825.18,-733.517C1829.1,-734.197 1853.11,-752.292 1853.62,-752.803C1854.13,-753.313 1859.24,-766.681 1859.24,-766.681L1862.76,-788.743C1873.99,-811.551 1875.58,-838.588 1879.49,-874.842L1881.71,-894.246L1888.51,-897.139C1898.22,-901.394 1912.34,-916.543 1916.43,-927.436C1919.83,-936.117 1923.62,-963.665 1920.05,-971.318C1913.56,-985.269 1916.72,-1002.37 1912,-997.277C1887.17,-970.513 1885.22,-962.552 1863.21,-950.819C1811.79,-923.409 1736.71,-949.372 1736.84,-954.122C1736.94,-957.633 1742.82,-956.372 1764.26,-952.116C1803.07,-944.117 1831.32,-951.946 1858.05,-977.988C1870.98,-990.583 1873.88,-994.839 1894.47,-1030.75C1906.73,-1052.2 1918.81,-1071.6 1921.36,-1073.82C1939.58,-1089.3 1951.83,-1096.62 1968.34,-1102.24C1974.3,-1104.28 2030.33,-1133.8 2054.67,-1137.54C2061.31,-1138.56 2098.13,-1138.87 2129.96,-1160.38C2142.72,-1169 2190.99,-1191.09 2195.07,-1191.09C2196.26,-1191.09 2223.74,-1211.94 2236.16,-1219.6C2241.82,-1223.18 2248.46,-1243.75 2252.68,-1254.03ZM2444.67,-1472.53C2540.75,-1383.59 2600.94,-1256.39 2600.94,-1115.25C2600.94,-967.658 2535.12,-835.317 2431.28,-746.025L2490.89,-841.123C2546.99,-918.045 2580.11,-1012.81 2580.11,-1115.25C2580.11,-1241.66 2529.67,-1356.38 2447.81,-1440.39L2447.71,-1440.39L2272.14,-1658.2L2191.03,-1549.76L2224.8,-1653.22L2152.31,-1587.07L2168.66,-1631.37L2008.18,-1473.26L2061.65,-1604.29L1970.59,-1508.31L2013.39,-1606.52L1863.7,-1441.13L1857.91,-1441.13L1913.64,-1569.02L1818.26,-1463.63L1874.66,-1566.95L1773.99,-1433.68C1695.93,-1350.35 1648.11,-1238.34 1648.11,-1115.25C1648.11,-1017 1678.58,-925.815 1730.56,-850.654L1729.87,-850.699L1785.16,-756.484C1688.13,-845.506 1627.27,-973.327 1627.27,-1115.25C1627.27,-1245.38 1678.44,-1363.65 1761.72,-1451.02L1909.75,-1659.1L1954.92,-1595.61L2043.76,-1720.48L2110.37,-1626.84L2222.64,-1784.64L2444.67,-1472.53ZM1925.86,-772.795C1969.61,-786.582 1986.08,-792.777 1985.39,-805.372C1984.54,-821.542 1987.27,-821.363 1984.69,-826.698C1986.37,-833.658 1981.86,-832.992 1986.13,-846.561C1991.92,-858.816 1985.36,-861.906 1986.04,-879.608C1986.55,-894.246 1984.6,-897.312 1984.68,-898.841C1986.25,-926.459 1966.31,-890.247 1952.01,-881.056L1919.34,-871.174L1907.92,-839.335C1886.65,-794.06 1881.39,-784.599 1891.25,-766.035C1899.34,-750.802 1891.99,-762.243 1925.86,-772.795ZM2013.62,-815.269C2013.62,-803.184 2030.14,-821.501 2045.63,-826.267C2071.67,-834.437 2085.14,-842.64 2132.28,-854.554C2142.84,-857.277 2171.83,-866.822 2171.83,-866.822C2171.83,-866.822 2176.55,-866.693 2172.46,-877.706C2172.38,-877.903 2170.52,-881.279 2170.49,-881.494C2170.16,-883.609 2172.66,-900.606 2171.79,-902.279C2172.13,-935.299 2167.46,-975.339 2164.91,-980.105C2163.72,-981.977 2159.88,-986.436 2150.86,-986.096C2143.2,-985.755 2069.82,-988.475 2067.78,-974.518C2061.31,-933.838 2051.91,-909.731 2033.17,-890.596C2029.24,-886.581 2012.5,-837.056 2012.5,-837.056L2013.62,-815.269ZM2206.94,-871.359C2211.88,-861.487 2249.18,-875.693 2246.97,-878.587C2244.08,-882.501 2242.54,-886.761 2242.54,-897.484C2242.54,-917.569 2238.29,-967.095 2235.57,-973.563C2234.21,-976.626 2233.19,-982.924 2233.19,-987.52C2233.19,-992.115 2232.85,-995.86 2232.33,-995.86C2231.99,-995.86 2221.01,-995.2 2218.12,-995.2C2214.54,-995.2 2209.36,-988.03 2208.68,-986.158C2206.46,-980.541 2195.64,-942.002 2195.64,-907.279C2195.64,-874.599 2203.71,-877.997 2206.94,-871.359Z" style="fill:white;fill-rule:nonzero;"/>
            </g>
        </g>
    </g>
    <g id="Dog-design-horizontal" serif:id="Dog design horizontal">
    </g>
</svg>
