<?xml version="1.0" encoding="UTF-8" standalone="no"?>
<!DOCTYPE svg PUBLIC "-//W3C//DTD SVG 1.1//EN" "http://www.w3.org/Graphics/SVG/1.1/DTD/svg11.dtd">
<svg width="100%" height="100%" viewBox="0 0 1252 484" version="1.1" xmlns="http://www.w3.org/2000/svg" xmlns:xlink="http://www.w3.org/1999/xlink" xml:space="preserve" xmlns:serif="http://www.serif.com/" style="fill-rule:evenodd;clip-rule:evenodd;stroke-linejoin:round;stroke-miterlimit:2;">
    <g id="Wolf-design" serif:id="Wolf design">
    </g>
    <g id="Dog-design" serif:id="Dog design">
    </g>
    <g id="Artboard3" transform="matrix(1,0,0,1,-614.88,-570.756)">
        <rect x="614.88" y="570.756" width="1251.05" height="483.693" style="fill:none;"/>
        <clipPath id="_clip1">
            <rect x="614.88" y="570.756" width="1251.05" height="483.693"/>
        </clipPath>
        <g clip-path="url(#_clip1)">
            <g id="Dog-design-horizontal" serif:id="Dog design horizontal" transform="matrix(1,0,0,1,-498.294,-1278.81)">
                <g transform="matrix(1,0,0,1,961.243,-1304.01)">
                    <g transform="matrix(181.199,0,0,181.199,617.75,3468.05)">
                        <path d="M0.678,-0.538C0.658,-0.429 0.588,-0.361 0.469,-0.333C0.545,-0.25 0.609,-0.167 0.659,-0.083L0.491,-0.022C0.442,-0.121 0.377,-0.217 0.296,-0.312L0.271,-0.332L0.255,-0.281C0.243,-0.245 0.223,-0.169 0.194,-0.053L0.188,-0.052C0.136,-0.042 0.076,-0.028 0.009,-0.009C0.032,-0.097 0.059,-0.188 0.09,-0.281C0.11,-0.34 0.141,-0.416 0.183,-0.507C0.191,-0.526 0.203,-0.55 0.219,-0.582C0.206,-0.577 0.194,-0.574 0.184,-0.571L0.148,-0.738C0.232,-0.751 0.304,-0.757 0.365,-0.757C0.379,-0.757 0.395,-0.757 0.412,-0.755C0.46,-0.751 0.488,-0.749 0.495,-0.748C0.521,-0.744 0.549,-0.735 0.58,-0.721C0.648,-0.693 0.683,-0.644 0.683,-0.575C0.683,-0.565 0.681,-0.553 0.678,-0.538ZM0.529,-0.554C0.529,-0.58 0.512,-0.599 0.477,-0.612C0.467,-0.616 0.451,-0.618 0.428,-0.618L0.415,-0.618C0.395,-0.617 0.368,-0.611 0.333,-0.602L0.368,-0.584C0.356,-0.563 0.344,-0.538 0.332,-0.507C0.331,-0.505 0.324,-0.487 0.312,-0.455L0.354,-0.456C0.398,-0.457 0.434,-0.463 0.464,-0.475C0.508,-0.492 0.529,-0.518 0.529,-0.554Z" style="fill-rule:nonzero;"/>
                    </g>
                    <g transform="matrix(181.199,0,0,181.199,728.345,3468.05)">
                        <path d="M0.641,-0.757C0.631,-0.733 0.613,-0.681 0.589,-0.602C0.564,-0.522 0.545,-0.464 0.532,-0.426C0.495,-0.322 0.453,-0.249 0.405,-0.209C0.365,-0.175 0.313,-0.159 0.249,-0.159C0.217,-0.159 0.185,-0.17 0.153,-0.193C0.107,-0.226 0.084,-0.275 0.084,-0.339C0.084,-0.366 0.088,-0.395 0.096,-0.426C0.121,-0.523 0.16,-0.628 0.213,-0.742L0.341,-0.757C0.313,-0.689 0.295,-0.644 0.286,-0.624C0.255,-0.543 0.232,-0.477 0.22,-0.426C0.215,-0.407 0.213,-0.388 0.213,-0.369C0.213,-0.312 0.234,-0.283 0.275,-0.283C0.322,-0.283 0.363,-0.331 0.398,-0.426L0.521,-0.757L0.641,-0.757Z" style="fill-rule:nonzero;"/>
                    </g>
                    <g transform="matrix(181.199,0,0,181.199,818.148,3468.05)">
                        <path d="M0.146,-0.177C0.104,-0.173 0.055,-0.166 0,-0.156L0,-0.158C0,-0.161 0.007,-0.188 0.021,-0.236C0.037,-0.293 0.051,-0.339 0.064,-0.375C0.085,-0.435 0.11,-0.495 0.137,-0.556C0.148,-0.579 0.159,-0.603 0.172,-0.627C0.145,-0.625 0.119,-0.622 0.095,-0.619L0.129,-0.736C0.183,-0.74 0.248,-0.744 0.323,-0.749C0.368,-0.751 0.441,-0.754 0.541,-0.757L0.505,-0.644L0.46,-0.644C0.376,-0.644 0.31,-0.642 0.262,-0.638L0.287,-0.624C0.283,-0.615 0.273,-0.593 0.258,-0.556C0.254,-0.547 0.249,-0.536 0.244,-0.523L0.412,-0.529L0.376,-0.427L0.21,-0.421C0.205,-0.402 0.2,-0.387 0.196,-0.376C0.173,-0.309 0.156,-0.242 0.146,-0.177Z" style="fill-rule:nonzero;"/>
                    </g>
                    <g transform="matrix(181.199,0,0,181.199,882.116,3468.05)">
                        <path d="M0.146,-0.177C0.104,-0.173 0.055,-0.166 0,-0.156L0,-0.158C0,-0.161 0.007,-0.188 0.021,-0.236C0.037,-0.293 0.051,-0.339 0.064,-0.375C0.085,-0.435 0.11,-0.495 0.137,-0.556C0.148,-0.579 0.159,-0.603 0.172,-0.627C0.145,-0.625 0.119,-0.622 0.095,-0.619L0.129,-0.736C0.183,-0.74 0.248,-0.744 0.323,-0.749C0.368,-0.751 0.441,-0.754 0.541,-0.757L0.505,-0.644L0.46,-0.644C0.376,-0.644 0.31,-0.642 0.262,-0.638L0.287,-0.624C0.283,-0.615 0.273,-0.593 0.258,-0.556C0.254,-0.547 0.249,-0.536 0.244,-0.523L0.412,-0.529L0.376,-0.427L0.21,-0.421C0.205,-0.402 0.2,-0.387 0.196,-0.376C0.173,-0.309 0.156,-0.242 0.146,-0.177Z" style="fill-rule:nonzero;"/>
                    </g>
                    <g transform="matrix(181.199,0,0,181.199,1003.77,3468.05)">
                        <path d="M0.529,-0.554C0.529,-0.58 0.512,-0.599 0.477,-0.612C0.467,-0.616 0.451,-0.618 0.428,-0.618L0.415,-0.618C0.395,-0.617 0.368,-0.611 0.333,-0.602L0.368,-0.584C0.356,-0.563 0.344,-0.538 0.332,-0.507C0.331,-0.505 0.324,-0.487 0.312,-0.455L0.354,-0.456C0.398,-0.457 0.434,-0.463 0.464,-0.475C0.508,-0.492 0.529,-0.518 0.529,-0.554ZM0.271,-0.332L0.255,-0.281C0.243,-0.245 0.223,-0.169 0.194,-0.053L0.188,-0.052C0.136,-0.042 0.076,-0.028 0.009,-0.009C0.032,-0.097 0.059,-0.188 0.09,-0.281C0.11,-0.34 0.141,-0.416 0.183,-0.507C0.191,-0.526 0.203,-0.55 0.219,-0.582C0.206,-0.577 0.194,-0.574 0.184,-0.571L0.148,-0.738C0.232,-0.751 0.304,-0.757 0.365,-0.757C0.379,-0.757 0.395,-0.757 0.412,-0.755C0.46,-0.751 0.488,-0.749 0.495,-0.748C0.521,-0.744 0.549,-0.735 0.58,-0.721C0.648,-0.693 0.683,-0.644 0.683,-0.575C0.683,-0.565 0.681,-0.553 0.678,-0.538C0.662,-0.455 0.598,-0.396 0.487,-0.36C0.427,-0.341 0.355,-0.332 0.271,-0.332Z" style="fill-rule:nonzero;"/>
                    </g>
                    <g transform="matrix(181.199,0,0,181.199,1109.94,3468.05)">
                        <path d="M0.546,-0.757L0.51,-0.644L0.465,-0.644C0.381,-0.644 0.315,-0.642 0.267,-0.638L0.292,-0.624C0.288,-0.615 0.278,-0.593 0.263,-0.556C0.258,-0.547 0.254,-0.536 0.249,-0.523L0.417,-0.529L0.381,-0.427L0.215,-0.421C0.203,-0.386 0.19,-0.341 0.176,-0.286C0.221,-0.289 0.289,-0.292 0.379,-0.296L0.342,-0.184L0.258,-0.184C0.201,-0.184 0.116,-0.174 0.005,-0.156L0.005,-0.158C0.005,-0.161 0.012,-0.188 0.025,-0.236C0.042,-0.293 0.056,-0.339 0.069,-0.375C0.09,-0.435 0.115,-0.495 0.142,-0.556C0.153,-0.579 0.164,-0.603 0.177,-0.627C0.15,-0.625 0.124,-0.622 0.1,-0.619L0.134,-0.736C0.188,-0.74 0.253,-0.744 0.328,-0.749C0.373,-0.751 0.446,-0.754 0.546,-0.757Z" style="fill-rule:nonzero;"/>
                    </g>
                    <g transform="matrix(181.199,0,0,181.199,1173.91,3468.05)">
                        <path d="M0.374,-0.632C0.361,-0.613 0.333,-0.568 0.29,-0.496L0.255,-0.437L0.334,-0.438L0.353,-0.424C0.368,-0.457 0.375,-0.517 0.375,-0.605C0.375,-0.618 0.375,-0.627 0.374,-0.632ZM0.334,-0.35L0.215,-0.344C0.191,-0.306 0.169,-0.255 0.148,-0.193L0,-0.156C0.005,-0.173 0.024,-0.215 0.058,-0.285L0.094,-0.357C0.127,-0.425 0.18,-0.509 0.252,-0.609C0.291,-0.664 0.33,-0.713 0.369,-0.755C0.391,-0.756 0.425,-0.757 0.47,-0.76L0.473,-0.71C0.475,-0.672 0.477,-0.636 0.477,-0.601C0.477,-0.532 0.472,-0.469 0.461,-0.41C0.458,-0.4 0.45,-0.357 0.438,-0.282C0.433,-0.251 0.428,-0.226 0.423,-0.207L0.275,-0.17C0.285,-0.204 0.305,-0.264 0.334,-0.35Z" style="fill-rule:nonzero;"/>
                    </g>
                    <g transform="matrix(181.199,0,0,181.199,1258.49,3468.05)">
                        <path d="M0.423,-0.207L0.275,-0.17C0.278,-0.187 0.28,-0.205 0.28,-0.222C0.28,-0.255 0.274,-0.285 0.262,-0.314C0.248,-0.35 0.227,-0.373 0.201,-0.383L0.19,-0.35C0.183,-0.323 0.169,-0.271 0.148,-0.193L0,-0.156C0.017,-0.219 0.037,-0.283 0.059,-0.35C0.076,-0.401 0.1,-0.461 0.132,-0.531C0.157,-0.585 0.195,-0.657 0.245,-0.747L0.26,-0.749C0.29,-0.752 0.324,-0.755 0.362,-0.757C0.335,-0.708 0.298,-0.632 0.252,-0.531C0.251,-0.529 0.247,-0.518 0.239,-0.499C0.312,-0.53 0.382,-0.581 0.448,-0.652C0.478,-0.684 0.502,-0.715 0.52,-0.747L0.536,-0.749C0.565,-0.752 0.599,-0.755 0.637,-0.757C0.6,-0.672 0.536,-0.592 0.445,-0.517C0.399,-0.479 0.35,-0.45 0.298,-0.432C0.332,-0.415 0.361,-0.388 0.387,-0.35C0.414,-0.311 0.428,-0.273 0.428,-0.237C0.428,-0.228 0.426,-0.217 0.423,-0.207Z" style="fill-rule:nonzero;"/>
                    </g>
                    <g transform="matrix(181.199,0,0,181.199,1335.82,3468.05)">
                        <path d="M0.375,-0.646C0.354,-0.646 0.336,-0.644 0.32,-0.641C0.282,-0.632 0.255,-0.616 0.238,-0.594C0.233,-0.586 0.23,-0.578 0.23,-0.569C0.23,-0.555 0.237,-0.537 0.252,-0.516C0.272,-0.487 0.284,-0.469 0.287,-0.463C0.305,-0.42 0.314,-0.387 0.314,-0.363L0.314,-0.354C0.309,-0.295 0.275,-0.244 0.212,-0.203C0.179,-0.18 0.124,-0.16 0.048,-0.141L0.021,-0.287C0.05,-0.29 0.075,-0.296 0.098,-0.304C0.152,-0.322 0.179,-0.347 0.179,-0.378L0.179,-0.383C0.179,-0.398 0.174,-0.416 0.164,-0.436C0.159,-0.444 0.149,-0.459 0.135,-0.48C0.111,-0.519 0.099,-0.553 0.099,-0.581C0.099,-0.642 0.121,-0.685 0.167,-0.712C0.201,-0.732 0.254,-0.751 0.324,-0.769L0.375,-0.646Z" style="fill-rule:nonzero;"/>
                    </g>
                </g>
                <g transform="matrix(0.416379,0,0,0.416379,586.461,1174.04)">
                    <g transform="matrix(1,0,0,1,927.165,1481.84)">
                        <path d="M903.693,377.245L937.465,273.777L864.97,339.933L881.328,295.634L720.842,453.745L774.316,322.707L683.251,418.688L726.051,320.478L576.36,485.874L570.571,485.874L626.306,357.984L530.924,463.374L587.323,360.051L492.281,485.874L467.348,485.874L622.412,267.897L667.584,331.395L756.419,206.519L823.037,300.165L935.3,142.355L1180.2,486.608L1160.38,486.608L984.807,268.798L903.693,377.245Z"/>
                    </g>
                    <g transform="matrix(1,0,0,1,927.165,1481.84)">
                        <path d="M1157.33,454.472C1253.41,543.41 1313.61,670.606 1313.61,811.75C1313.61,959.342 1247.79,1091.68 1143.94,1180.98L1203.55,1085.88C1259.65,1008.96 1292.78,914.19 1292.78,811.75C1292.78,685.339 1242.33,570.617 1160.47,486.608L1155.9,468.964L1157.33,454.472ZM474.388,475.977L483.03,479.562L492.281,485.874L486.655,493.323C408.598,576.647 360.769,688.657 360.769,811.75C360.769,909.998 391.239,1001.19 443.221,1076.35L442.537,1076.3L497.825,1170.52C400.797,1081.49 339.935,953.673 339.935,811.75C339.935,681.622 391.1,563.35 474.388,475.977Z"/>
                    </g>
                    <g transform="matrix(1.0579,0,0,1.0579,-114.017,-161.693)">
                        <path d="M1896.7,2189.72C1896.92,2188.1 1897.25,2186.55 1897.83,2185.19C1899.72,2180.98 1898.47,2175.89 1898.47,2175.17C1898.47,2174.3 1895.27,2173.72 1891.21,2173.72C1887.29,2173.72 1883.95,2173.14 1883.95,2172.55C1883.95,2169.22 1896,2154.84 1904.27,2148.16C1912.99,2141.05 1914,2139.6 1919.66,2126.09C1927.65,2106.49 1932.88,2099.67 1942.32,2096.04C1949.58,2093.13 1950.16,2092.55 1965.84,2068.16C1974.69,2054.37 1982.83,2042.32 1983.7,2041.44C1985.15,2039.99 1986.89,2040.28 1991.68,2043.04C2001.41,2048.27 2002.86,2050.01 2003.3,2057.41C2003.73,2063.08 2004.31,2064.39 2007.8,2065.98L2011.72,2067.87L2011.72,2085.58C2011.72,2095.31 2008.14,2110.34 2006.98,2118.33C2005.2,2130.58 1987.48,2193.27 1981.65,2204.63C1975.46,2216.69 1980.17,2230.05 1980.15,2244.26C1980.12,2290.74 1979.66,2280.16 1972.55,2321.36C1965.51,2362.17 1949.04,2380.32 1948.24,2385.47C1944.54,2407.67 1944.09,2404.14 1932.02,2424.58C1917.22,2449.36 1907.83,2465.14 1908.95,2506C1909.6,2531.75 1910.55,2544.39 1914.25,2543.59C1922.29,2542.14 1940.54,2547.35 1966.77,2569.23L1986.88,2585.96L2043.75,2691.69C2043.15,2692.17 1936.56,2777.27 1793.22,2785.6C1623.17,2795.49 1476.06,2685.53 1479.28,2685.05C1482.98,2684.41 1519,2663.99 1519.49,2663.51C1519.97,2663.03 1524.8,2650.39 1524.8,2650.39L1528.12,2629.54C1538.74,2607.98 1540.24,2582.42 1543.94,2548.15L1546.03,2529.81L1552.47,2527.07C1561.64,2523.05 1574.99,2508.73 1578.86,2498.43C1582.07,2490.23 1585.65,2464.19 1582.28,2456.95C1576.14,2443.77 1579.13,2427.6 1574.67,2432.42C1551.2,2457.72 1549.35,2465.24 1528.55,2476.33C1479.95,2502.24 1408.97,2477.7 1409.1,2473.21C1409.19,2469.89 1414.75,2471.08 1435.02,2475.11C1471.7,2482.67 1498.41,2475.27 1523.67,2450.65C1535.9,2438.74 1538.63,2434.72 1558.1,2400.77C1569.68,2380.5 1581.11,2362.16 1583.52,2360.07C1600.74,2345.43 1612.32,2338.51 1627.93,2333.2C1633.56,2331.27 1686.53,2303.37 1709.53,2299.83C1715.81,2298.87 1750.61,2298.57 1780.7,2278.24C1792.76,2270.1 1838.39,2249.21 1842.25,2249.21C1843.37,2249.21 1869.34,2229.5 1881.09,2222.26C1886.44,2218.88 1892.71,2199.44 1896.7,2189.72ZM1587.77,2644.61C1629.12,2631.58 1644.69,2625.72 1644.05,2613.82C1643.24,2598.53 1645.82,2598.7 1643.38,2593.66C1644.96,2587.08 1640.71,2587.71 1644.75,2574.88C1650.22,2563.3 1644.02,2560.38 1644.66,2543.65C1645.14,2529.81 1643.29,2526.91 1643.37,2525.47C1644.86,2499.36 1626,2533.59 1612.49,2542.28L1581.61,2551.62L1570.82,2581.71C1550.71,2624.51 1545.74,2633.45 1555.06,2651C1562.71,2665.4 1555.76,2654.59 1587.77,2644.61ZM1670.73,2604.46C1670.73,2615.89 1686.34,2598.57 1700.99,2594.07C1725.6,2586.34 1738.33,2578.59 1782.9,2567.33C1792.87,2564.75 1820.28,2555.73 1820.28,2555.73C1820.28,2555.73 1824.74,2555.85 1820.87,2545.44C1820.8,2545.26 1819.04,2542.07 1819.01,2541.86C1818.7,2539.86 1821.07,2523.8 1820.24,2522.22C1820.56,2491 1816.15,2453.15 1813.73,2448.65C1812.61,2446.88 1808.98,2442.66 1800.45,2442.99C1793.21,2443.31 1723.85,2440.74 1721.92,2453.93C1715.81,2492.38 1706.92,2515.17 1689.21,2533.26C1685.49,2537.05 1669.66,2583.87 1669.66,2583.87L1670.73,2604.46ZM1853.47,2551.44C1858.13,2560.78 1893.4,2547.35 1891.31,2544.61C1888.57,2540.91 1887.12,2536.88 1887.12,2526.75C1887.12,2507.76 1883.1,2460.95 1880.53,2454.83C1879.24,2451.94 1878.28,2445.98 1878.28,2441.64C1878.28,2437.3 1877.95,2433.76 1877.47,2433.76C1877.15,2433.76 1866.77,2434.38 1864.03,2434.38C1860.65,2434.38 1855.75,2441.16 1855.11,2442.93C1853.02,2448.24 1842.79,2484.67 1842.79,2517.49C1842.79,2548.38 1850.41,2545.17 1853.47,2551.44Z" style="fill-rule:nonzero;"/>
                    </g>
                </g>
            </g>
        </g>
    </g>
</svg>
